<svg width="30" height="30" viewBox="0 0 30 30" fill="none" xmlns="http://www.w3.org/2000/svg">
<path d="M26.3916 9.54962C26.2608 9.52584 14.266 7.87343 8.20322 7.04129V4.42597C8.20322 4.40219 8.20322 4.37842 8.20322 4.37842L8.19132 4.35464V4.33086C8.19132 4.31898 8.19132 4.30709 8.19132 4.2952L8.17944 4.24765C8.17944 4.24765 8.17944 4.24765 8.17944 4.23576L8.08434 4.04556L8.07245 4.03367L8.06056 4.02178C8.04867 4.00989 8.04868 4.00989 8.03679 3.99801L8.01301 3.97423L8.00111 3.96234C7.98922 3.95046 7.97734 3.93856 7.96545 3.93856C7.94168 3.92667 7.94168 3.91479 7.92979 3.9029C7.92979 3.9029 7.9298 3.9029 7.91791 3.89101L7.87035 3.86724C7.85846 3.85535 7.83469 3.85535 7.8228 3.84347L3.89982 2.19106C3.59073 2.06029 3.23411 2.20294 3.09145 2.51203C3.03202 2.66657 3.03202 2.833 3.09145 2.98754C3.15089 3.14208 3.26977 3.26096 3.42431 3.3204L6.97876 4.81827V20.6528C6.97876 22.0675 8.03678 23.2801 9.45143 23.4584L9.61786 23.4821L9.53465 23.6248C9.27312 24.0647 9.13047 24.5639 9.13047 25.0632C9.13047 26.6086 10.3906 27.8569 11.9241 27.8569C13.4695 27.8569 14.7177 26.5968 14.7177 25.0632C14.7177 24.5639 14.587 24.0765 14.3373 23.6486L14.2422 23.4821H21.0896L20.9945 23.6486C20.7449 24.0765 20.6141 24.5639 20.6141 25.0632C20.6141 26.6086 21.8742 27.8569 23.4077 27.8569C24.9532 27.8569 26.2014 26.5968 26.2014 25.0632C26.2014 23.5297 24.9413 22.2696 23.4077 22.2696H9.81997C8.92838 22.2696 8.2151 21.5444 8.2151 20.6647V18.5249L8.38153 18.62C8.82138 18.8697 9.32067 19.0123 9.83185 19.0123H24.121C25.6783 19.0123 26.9503 17.7403 26.9503 16.183C26.9503 14.1621 26.9503 10.5244 26.9503 10.1083C26.9503 9.69227 26.5818 9.57339 26.3916 9.54962ZM23.3959 23.4821C24.2637 23.4821 24.965 24.1835 24.965 25.0513C24.965 25.9191 24.2637 26.6205 23.3959 26.6205C22.528 26.6205 21.8267 25.9191 21.8267 25.0513C21.8267 24.1954 22.528 23.4821 23.3959 23.4821ZM8.19132 8.27762L8.31021 8.28951L25.6902 10.679V16.1593C25.6902 17.0508 24.9651 17.776 24.0854 17.776H9.79619C8.9046 17.776 8.19132 17.0508 8.19132 16.1711V8.27762ZM11.9122 26.6324C11.0444 26.6324 10.343 25.931 10.343 25.0632C10.343 24.1954 11.0444 23.494 11.9122 23.494C12.78 23.494 13.4814 24.1954 13.4814 25.0632C13.4933 25.9192 12.78 26.6324 11.9122 26.6324Z" fill="#373737"/>
</svg>
